<?xml version="1.0" encoding="UTF-8" standalone="no"?>
<svg
   width="33.393799"
   height="26"
   viewBox="0 0 33.393799 26"
   fill="none"
   version="1.1"
   id="svg2"
   sodipodi:docname="logo_sm_dark.svg"
   inkscape:version="1.4.2 (ebf0e940d0, 2025-05-08)"
   xmlns:inkscape="http://www.inkscape.org/namespaces/inkscape"
   xmlns:sodipodi="http://sodipodi.sourceforge.net/DTD/sodipodi-0.dtd"
   xmlns="http://www.w3.org/2000/svg"
   xmlns:svg="http://www.w3.org/2000/svg">
  <defs
     id="defs1" />
  <sodipodi:namedview
     id="namedview1"
     pagecolor="#ffffff"
     bordercolor="#000000"
     borderopacity="0.25"
     inkscape:showpageshadow="2"
     inkscape:pageopacity="0.0"
     inkscape:pagecheckerboard="0"
     inkscape:deskcolor="#d1d1d1"
     inkscape:zoom="5.01129"
     inkscape:cx="22.848409"
     inkscape:cy="27.438045"
     inkscape:window-width="1691"
     inkscape:window-height="990"
     inkscape:window-x="0"
     inkscape:window-y="0"
     inkscape:window-maximized="1"
     inkscape:current-layer="svg2" />
  <path
     id="path1"
     style="fill:#f1ecfd;fill-opacity:1;stroke:none;stroke-width:0.722222"
     d="M 18.884766 0 L 18.884766 8.6191406 L 21.757812 8.6191406 L 21.757812 5.7460938 L 30.521484 5.7460938 L 30.521484 8.6191406 L 33.394531 8.6191406 L 33.394531 0 L 18.884766 0 z M 6.6035156 5.4824219 C 5.9276534 5.4824219 5.3779574 5.6563298 4.953125 6.0039062 C 4.5476843 6.3321776 4.2877916 6.7559936 4.171875 7.2773438 L 3.6503906 7.2773438 L 3.6503906 5.8867188 L 0 5.8867188 L 0 20.253906 L 3.6503906 20.253906 L 3.6503906 10.347656 C 3.6503906 9.8842071 3.7663293 9.5364484 3.9980469 9.3046875 C 4.2297645 9.0729988 4.5176436 8.9570312 4.8652344 8.9570312 C 5.1741936 8.9570313 5.4360105 9.0649384 5.6484375 9.2773438 C 5.8801479 9.4704658 5.9960938 9.7683006 5.9960938 10.173828 L 5.9960938 20.253906 L 9.6445312 20.253906 L 9.6445312 10.347656 C 9.6445312 9.8842071 9.7524384 9.5364484 9.9648438 9.3046875 C 10.196533 9.0729988 10.504453 8.9570312 10.890625 8.9570312 C 11.218947 8.9570313 11.480706 9.0649384 11.673828 9.2773438 C 11.886233 9.4704658 11.992188 9.7683006 11.992188 10.173828 L 11.992188 20.253906 L 15.640625 20.253906 L 15.640625 9.1308594 C 15.640625 7.9915548 15.350778 7.1040274 14.771484 6.4667969 C 14.192118 5.8102541 13.420616 5.4824219 12.455078 5.4824219 C 11.721373 5.4824219 11.103651 5.6563298 10.601562 6.0039062 C 10.118829 6.3321776 9.7990145 6.7559936 9.6445312 7.2773438 L 9.125 7.2773438 C 8.9705168 6.7559936 8.6707288 6.3321777 8.2265625 6.0039062 C 7.7824685 5.6563298 7.2407461 5.4824219 6.6035156 5.4824219 z M 21.902344 8.7636719 L 21.902344 17.236328 L 30.376953 17.236328 L 30.376953 14.365234 L 33.394531 14.365234 L 33.394531 11.634766 L 30.376953 11.634766 L 30.376953 8.7636719 L 21.902344 8.7636719 z M 18.884766 17.380859 L 18.884766 26 L 33.394531 26 L 33.394531 17.380859 L 30.521484 17.380859 L 30.521484 20.253906 L 21.757812 20.253906 L 21.757812 17.380859 L 18.884766 17.380859 z " />
</svg>
