<?xml version="1.0" encoding="UTF-8" standalone="no"?>
<svg
   width="163.08116"
   height="26"
   viewBox="0 0 163.08116 26"
   fill="none"
   version="1.1"
   id="svg4"
   sodipodi:docname="logo_light.svg"
   inkscape:version="1.4.2 (ebf0e940d0, 2025-05-08)"
   xmlns:inkscape="http://www.inkscape.org/namespaces/inkscape"
   xmlns:sodipodi="http://sodipodi.sourceforge.net/DTD/sodipodi-0.dtd"
   xmlns="http://www.w3.org/2000/svg"
   xmlns:svg="http://www.w3.org/2000/svg">
  <defs
     id="defs4" />
  <sodipodi:namedview
     id="namedview4"
     pagecolor="#ffffff"
     bordercolor="#000000"
     borderopacity="0.25"
     inkscape:showpageshadow="2"
     inkscape:pageopacity="0.0"
     inkscape:pagecheckerboard="0"
     inkscape:deskcolor="#d1d1d1"
     showgrid="false"
     inkscape:zoom="1.9933628"
     inkscape:cx="140.96782"
     inkscape:cy="63.4606"
     inkscape:window-width="1691"
     inkscape:window-height="990"
     inkscape:window-x="0"
     inkscape:window-y="0"
     inkscape:window-maximized="1"
     inkscape:current-layer="svg4" />
  <path
     id="path1"
     style="fill:#201b2c;fill-opacity:1;stroke:none;stroke-width:0.722222"
     d="m 62.384765,0 v 8.6187068 h 2.871963 v -2.871962 h 8.762585 v 2.871962 h 2.873376 V 11.634549 H 73.876848 V 8.7625864 h -8.47624 v 8.4748276 h 8.47624 v -2.871963 h 3.015841 v 3.015842 h -2.873376 v 2.871962 H 65.256728 V 17.381293 H 62.384765 V 26 H 96.859591 V 5.7467448 h 3.017257 v 2.871962 h 2.729492 v -2.871962 h 5.88921 v 2.871962 h 2.87196 v 8.7625862 h -2.87196 v 2.871962 H 99.876848 V 26 h 63.204312 v -5.746745 h -3.01584 V 8.7625864 h -5.60287 v 2.8719626 h -2.87336 v 8.618706 h -3.01585 V 5.7467448 h 3.01585 v 2.871962 h 2.72949 v -2.871962 h 5.88921 v 2.871962 h 2.87337 V 0 h -40.22157 v 17.237414 h 5.74674 v 3.015841 h -5.87087 l -0.01,-2.862088 -2.88183,-0.0099 V 3.0172526 h -5.74674 V 0 Z M 7.3435332,4.5618489 C 6.5919668,4.561849 5.9807822,4.7550827 5.508355,5.1416015 5.0574067,5.5066632 4.7668653,5.9780414 4.6380208,6.5578342 H 4.0582682 V 5.0118272 H 0 V 20.988173 H 4.0582682 V 9.9728734 c 0,-0.5153777 0.1288129,-0.9018165 0.3865018,-1.1595053 0.2576816,-0.2576889 0.5797282,-0.3865016 0.9662543,-0.3865016 0.3435828,0 0.6341242,0.117819 0.8703342,0.3540579 0.2576889,0.2147167 0.3865018,0.5477427 0.3865018,0.9986983 V 20.988173 H 10.726128 V 9.9728734 c 0,-0.5153777 0.11782,-0.9018165 0.354059,-1.1595053 0.257689,-0.2576889 0.601635,-0.3865016 1.031141,-0.3865016 0.365011,0 0.654207,0.117819 0.868924,0.3540579 0.236238,0.2147167 0.355469,0.5477427 0.355469,0.9986983 V 20.988173 h 4.058267 V 8.6201173 c 0,-1.2669222 -0.322031,-2.2550203 -0.966253,-2.9636503 -0.644223,-0.7301088 -1.503422,-1.0946181 -2.577149,-1.0946181 -0.815967,10e-8 -1.502595,0.1932338 -2.060872,0.5797526 -0.5369,0.3650617 -0.891841,0.8364399 -1.063586,1.4162327 H 10.146376 C 9.9745591,5.9780414 9.641606,5.5066632 9.1476782,5.1416015 8.6537504,4.7550827 8.0521776,4.5618489 7.3435332,4.5618489 Z M 27.183485,4.7212457 c -0.948927,0 -1.819813,0.1160408 -2.613824,0.3484157 -0.794083,0.2130268 -1.491522,0.5317086 -2.091905,0.9577908 -0.600383,0.4066834 -1.093792,0.91033 -1.481119,1.5107422 -0.367973,0.5809556 -0.610249,1.2402925 -0.726455,1.9762369 h 4.212023 c 0.135561,-0.4453944 0.435134,-0.7948192 0.899956,-1.0466581 0.484178,-0.2712667 1.084808,-0.40625 1.801324,-0.40625 0.813439,0 1.45217,0.1733022 1.916993,0.5219189 0.484177,0.3486167 0.726453,0.8038514 0.726453,1.3654514 V 11.37359 h -3.455946 c -2.033561,0 -3.641397,0.474285 -4.822808,1.423285 -1.181339,0.929572 -1.771702,2.207179 -1.771702,3.833985 0,1.433177 0.455163,2.566727 1.365452,3.399522 0.929573,0.832794 2.177862,1.249783 3.746528,1.249783 1.355683,0 2.470183,-0.30984 3.341688,-0.929579 0.890862,-0.619739 1.403393,-1.472839 1.538954,-2.5574 h 0.26237 v 3.196397 h 4.154188 V 9.950304 c 0,-0.7940111 -0.174712,-1.5106455 -0.523329,-2.1497399 C 33.333137,7.1614481 32.85878,6.6182025 32.239041,6.1727431 31.638658,5.7080219 30.902972,5.349705 30.031467,5.0978733 29.179317,4.8460416 28.229335,4.7212457 27.183485,4.7212457 Z m 9.761285,0.289171 5.286892,7.6990013 -5.66493,8.278755 h 4.85243 l 2.613824,-3.891819 c 0.09685,-0.154772 0.174681,-0.291455 0.232748,-0.40766 0.07749,-0.135706 0.134719,-0.251711 0.173502,-0.348416 0.03871,-0.116206 0.07837,-0.22216 0.117079,-0.318793 h 0.232747 c 0.03878,0.09663 0.07696,0.202587 0.115669,0.318793 0.09685,0.1937 0.242172,0.455027 0.435872,0.784288 l 2.585612,3.863607 h 4.85102 l -5.635308,-8.278755 5.25727,-7.6990013 h -4.85102 L 45.310981,8.322483 c -0.09685,0.1548444 -0.183465,0.3002386 -0.260959,0.4358719 -0.05799,0.1357056 -0.10658,0.2517104 -0.145291,0.3484159 -0.05807,0.1164945 -0.09624,0.2234982 -0.115669,0.3202038 H 44.556315 C 44.517532,9.330269 44.478019,9.2142649 44.439236,9.0785587 44.400525,8.9816372 44.343228,8.8746327 44.265734,8.7583549 44.207595,8.6227216 44.129836,8.4773267 44.032986,8.322483 L 41.79579,5.0104167 Z m 45.550782,0.7363281 h 8.762585 v 2.871962 h 2.873375 V 20.253255 h -11.63596 v -2.871962 h -2.874784 v -3.015842 h 2.874784 v -2.873372 h 8.618704 V 8.7625864 h -8.618704 z m 51.712238,0 h 8.764 v 2.871962 h 2.87196 V 20.253255 h -11.63596 v -2.871962 h -2.87196 v -3.015842 h 2.87196 v -2.873372 h 8.61871 V 8.7625864 h -8.61871 z m -31.45898,3.0158416 v 2.8719626 h -2.871962 v 5.602865 h 8.474822 V 8.7625864 Z M 26.370985,13.987414 h 3.455946 v 1.62641 c 0,0.677806 -0.299645,1.240188 -0.899956,1.685655 -0.581028,0.426039 -1.335763,0.638998 -2.265408,0.638998 -0.813439,0 -1.443386,-0.174713 -1.888781,-0.52333 -0.426111,-0.367972 -0.638997,-0.861308 -0.638997,-1.481119 0,-0.619739 0.202692,-1.094025 0.609375,-1.423286 0.406756,-0.348616 0.949944,-0.523328 1.627821,-0.523328 z m 56.267039,0.521918 v 2.728082 h 8.476232 v -2.728082 z m 51.713646,0 v 2.728082 h 8.47483 v -2.728082 z" />
</svg>
