<?xml version="1.0" encoding="UTF-8" standalone="no"?>
<!-- Created with Inkscape (http://www.inkscape.org/) -->

<svg
   width="24"
   height="24"
   viewBox="0 0 24 24"
   version="1.1"
   id="svg1"
   inkscape:version="1.4.2 (ebf0e940d0, 2025-05-08)"
   sodipodi:docname="atom.svg"
   xml:space="preserve"
   xmlns:inkscape="http://www.inkscape.org/namespaces/inkscape"
   xmlns:sodipodi="http://sodipodi.sourceforge.net/DTD/sodipodi-0.dtd"
   xmlns="http://www.w3.org/2000/svg"
   xmlns:svg="http://www.w3.org/2000/svg"><sodipodi:namedview
     id="namedview1"
     pagecolor="#ffffff"
     bordercolor="#000000"
     borderopacity="0.25"
     inkscape:showpageshadow="2"
     inkscape:pageopacity="0.0"
     inkscape:pagecheckerboard="false"
     inkscape:deskcolor="#d1d1d1"
     inkscape:document-units="px"
     labelstyle="default"
     showgrid="true"
     showguides="false"
     inkscape:zoom="25.53098"
     inkscape:cx="12.396704"
     inkscape:cy="11.025821"
     inkscape:window-width="1691"
     inkscape:window-height="990"
     inkscape:window-x="0"
     inkscape:window-y="0"
     inkscape:window-maximized="1"
     inkscape:current-layer="layer1"
     inkscape:lockguides="true"><inkscape:grid
       id="grid1"
       units="px"
       originx="0"
       originy="0"
       spacingx="1"
       spacingy="1"
       empcolor="#0099e5"
       empopacity="0.30196078"
       color="#0099e5"
       opacity="0.14901961"
       empspacing="6"
       enabled="true"
       visible="true"
       dotted="false" /><sodipodi:guide
       position="12,22"
       orientation="0,-1"
       id="guide1"
       inkscape:locked="true" /><sodipodi:guide
       position="12,21"
       orientation="0,-1"
       id="guide2"
       inkscape:locked="true" /><sodipodi:guide
       position="12,20"
       orientation="0,-1"
       id="guide3"
       inkscape:locked="true" /><sodipodi:guide
       position="2,12"
       orientation="1,0"
       id="guide4"
       inkscape:locked="true" /><sodipodi:guide
       position="3,12"
       orientation="1,0"
       id="guide5"
       inkscape:locked="true" /><sodipodi:guide
       position="4,12"
       orientation="1,0"
       id="guide6"
       inkscape:locked="true" /><sodipodi:guide
       position="22,12"
       orientation="1,0"
       id="guide7"
       inkscape:locked="true" /><sodipodi:guide
       position="21,12"
       orientation="1,0"
       id="guide8"
       inkscape:locked="true" /><sodipodi:guide
       position="20,12"
       orientation="1,0"
       id="guide9"
       inkscape:locked="true" /><sodipodi:guide
       position="12,2"
       orientation="0,-1"
       id="guide10"
       inkscape:locked="true" /><sodipodi:guide
       position="12,3"
       orientation="0,-1"
       id="guide11"
       inkscape:locked="true" /><sodipodi:guide
       position="12,4"
       orientation="0,-1"
       id="guide12"
       inkscape:locked="true" /><sodipodi:guide
       position="12,12"
       orientation="0.70710678,-0.70710678"
       id="guide13"
       inkscape:locked="true" /><sodipodi:guide
       position="12,12"
       orientation="-0.70710678,-0.70710678"
       id="guide14"
       inkscape:locked="true" /><sodipodi:guide
       position="8,12"
       orientation="1,0"
       id="guide15"
       inkscape:locked="true" /><sodipodi:guide
       position="12,16"
       orientation="0,-1"
       id="guide16"
       inkscape:locked="true" /><sodipodi:guide
       position="16,12"
       orientation="1,0"
       id="guide17"
       inkscape:locked="true" /><sodipodi:guide
       position="12,8"
       orientation="0,-1"
       id="guide18"
       inkscape:locked="true" /><sodipodi:guide
       position="12,12"
       orientation="1,0"
       id="guide19"
       inkscape:locked="true" /><sodipodi:guide
       position="12,12"
       orientation="0,-1"
       id="guide20"
       inkscape:locked="true" /></sodipodi:namedview><defs
     id="defs1" /><g
     inkscape:label="Layer 1"
     inkscape:groupmode="layer"
     id="layer1"><path
       id="rect1"
       style="fill:#000000;stroke-width:1.5;stroke-linejoin:round;paint-order:fill markers stroke"
       d="M 4.0917969,4.0917969 C 2.517087,5.6661828 2.6543376,8.7004174 4.4511719,12 2.6543376,15.299581 2.517087,18.333817 4.0917969,19.908203 5.6661831,21.482914 8.7004181,21.345663 12,19.548828 c 3.299581,1.796835 6.333818,1.934086 7.908203,0.359375 C 21.482914,18.333816 21.345661,15.299582 19.548828,12 21.345661,8.7004173 21.482914,5.6661833 19.908203,4.0917969 18.333818,2.517087 15.299581,2.6543378 12,4.4511719 11.065933,3.9425125 6.5187096,1.6643838 4.0917969,4.0917969 Z M 10.105469,5.6523438 C 8.5073435,6.8108788 6.9340864,8.337386 5.6523438,10.105469 4.6966216,8.0556026 4.6436831,6.3681389 5.5058594,5.5058594 6.3671756,4.6446457 8.0533203,4.6955574 10.105469,5.6523438 Z M 18.494141,5.5058594 C 19.356317,6.3681397 19.303378,8.0556027 18.347656,10.105469 17.189121,8.5073427 15.662614,6.9340858 13.894531,5.6523438 15.947063,4.6953801 17.632982,4.6448061 18.494141,5.5058594 Z M 12,6.7324219 C 14.010529,8.0822315 15.927168,10.003472 17.267578,12 15.917768,14.010529 13.996526,15.92717 12,17.267578 9.9894723,15.917771 8.0728303,13.996526 6.7324219,12 8.0822304,9.9894716 10.003472,8.0728307 12,6.7324219 Z M 10.5,10.5 v 3 h 3 v -3 z m -4.8476562,3.394531 c 1.1585345,1.598126 2.6850427,3.171382 4.4531252,4.453125 -2.0498663,0.95572 -3.7373295,1.008661 -4.5996096,0.146485 -0.8621763,-0.86228 -0.8092378,-2.549744 0.1464844,-4.59961 z m 12.6953122,0 c 0.955722,2.049866 1.008661,3.737329 0.146485,4.59961 -0.862281,0.862175 -2.549743,0.809237 -4.59961,-0.146485 1.598127,-1.158535 3.171382,-2.685042 4.453125,-4.453125 z"
       sodipodi:nodetypes="ccccccccccccccccccccccccccccccccccc" /></g></svg>
