<?xml version="1.0" encoding="UTF-8" standalone="no"?>
<!-- Created with Inkscape (http://www.inkscape.org/) -->

<svg
   width="24"
   height="24"
   viewBox="0 0 24 24"
   version="1.1"
   id="svg1"
   inkscape:version="1.4.2 (ebf0e940d0, 2025-05-08)"
   sodipodi:docname="code.svg"
   xml:space="preserve"
   xmlns:inkscape="http://www.inkscape.org/namespaces/inkscape"
   xmlns:sodipodi="http://sodipodi.sourceforge.net/DTD/sodipodi-0.dtd"
   xmlns="http://www.w3.org/2000/svg"
   xmlns:svg="http://www.w3.org/2000/svg"><sodipodi:namedview
     id="namedview1"
     pagecolor="#ffffff"
     bordercolor="#000000"
     borderopacity="0.25"
     inkscape:showpageshadow="2"
     inkscape:pageopacity="0.0"
     inkscape:pagecheckerboard="false"
     inkscape:deskcolor="#d1d1d1"
     inkscape:document-units="px"
     labelstyle="default"
     showgrid="false"
     showguides="false"
     inkscape:zoom="13.081325"
     inkscape:cx="12.422289"
     inkscape:cy="14.104076"
     inkscape:window-width="1691"
     inkscape:window-height="990"
     inkscape:window-x="0"
     inkscape:window-y="0"
     inkscape:window-maximized="1"
     inkscape:current-layer="layer1"
     inkscape:lockguides="true"><inkscape:grid
       id="grid1"
       units="px"
       originx="0"
       originy="0"
       spacingx="1"
       spacingy="1"
       empcolor="#0099e5"
       empopacity="0.30196078"
       color="#0099e5"
       opacity="0.14901961"
       empspacing="6"
       enabled="true"
       visible="false"
       dotted="false" /><sodipodi:guide
       position="12,22"
       orientation="0,-1"
       id="guide1"
       inkscape:locked="true" /><sodipodi:guide
       position="12,21"
       orientation="0,-1"
       id="guide2"
       inkscape:locked="true" /><sodipodi:guide
       position="12,20"
       orientation="0,-1"
       id="guide3"
       inkscape:locked="true" /><sodipodi:guide
       position="2,12"
       orientation="1,0"
       id="guide4"
       inkscape:locked="true" /><sodipodi:guide
       position="3,12"
       orientation="1,0"
       id="guide5"
       inkscape:locked="true" /><sodipodi:guide
       position="4,12"
       orientation="1,0"
       id="guide6"
       inkscape:locked="true" /><sodipodi:guide
       position="22,12"
       orientation="1,0"
       id="guide7"
       inkscape:locked="true" /><sodipodi:guide
       position="21,12"
       orientation="1,0"
       id="guide8"
       inkscape:locked="true" /><sodipodi:guide
       position="20,12"
       orientation="1,0"
       id="guide9"
       inkscape:locked="true" /><sodipodi:guide
       position="12,2"
       orientation="0,-1"
       id="guide10"
       inkscape:locked="true" /><sodipodi:guide
       position="12,3"
       orientation="0,-1"
       id="guide11"
       inkscape:locked="true" /><sodipodi:guide
       position="12,4"
       orientation="0,-1"
       id="guide12"
       inkscape:locked="true" /><sodipodi:guide
       position="12,12"
       orientation="0.70710678,-0.70710678"
       id="guide13"
       inkscape:locked="true" /><sodipodi:guide
       position="12,12"
       orientation="-0.70710678,-0.70710678"
       id="guide14"
       inkscape:locked="true" /><sodipodi:guide
       position="8,12"
       orientation="1,0"
       id="guide15"
       inkscape:locked="true" /><sodipodi:guide
       position="12,16"
       orientation="0,-1"
       id="guide16"
       inkscape:locked="true" /><sodipodi:guide
       position="16,12"
       orientation="1,0"
       id="guide17"
       inkscape:locked="true" /><sodipodi:guide
       position="12,8"
       orientation="0,-1"
       id="guide18"
       inkscape:locked="true" /><sodipodi:guide
       position="12,12"
       orientation="1,0"
       id="guide19"
       inkscape:locked="true" /><sodipodi:guide
       position="12,12"
       orientation="0,-1"
       id="guide20"
       inkscape:locked="true" /></sodipodi:namedview><defs
     id="defs1"><clipPath
       clipPathUnits="userSpaceOnUse"
       id="clipPath3"><path
         d="M 0,24 H 24 V 0 H 0 Z"
         transform="matrix(1.3333333,0,0,-1.3333333,0,32)"
         id="path3" /></clipPath><clipPath
       clipPathUnits="userSpaceOnUse"
       id="clipPath1"><path
         d="M 0,24 H 24 V 0 H 0 Z"
         id="path1" /></clipPath><clipPath
       clipPathUnits="userSpaceOnUse"
       id="clipPath5"><path
         d="M 0,24 H 24 V 0 H 0 Z"
         transform="translate(-18,-22.000201)"
         id="path5-3" /></clipPath><clipPath
       clipPathUnits="userSpaceOnUse"
       id="clipPath7"><path
         d="M 0,24 H 24 V 0 H 0 Z"
         transform="translate(-20.0002,-20.000001)"
         id="path7" /></clipPath><clipPath
       clipPathUnits="userSpaceOnUse"
       id="clipPath9"><path
         d="M 0,24 H 24 V 0 H 0 Z"
         transform="translate(-19,-21.000001)"
         id="path9" /></clipPath><clipPath
       clipPathUnits="userSpaceOnUse"
       id="clipPath11"><path
         d="M 0,24 H 24 V 0 H 0 Z"
         transform="translate(-12.0003,-18)"
         id="path11" /></clipPath><clipPath
       clipPathUnits="userSpaceOnUse"
       id="clipPath13"><path
         d="M 0,24 H 24 V 0 H 0 Z"
         id="path13" /></clipPath><clipPath
       clipPathUnits="userSpaceOnUse"
       id="clipPath15"><path
         d="M 0,24 H 24 V 0 H 0 Z"
         transform="translate(-12,-22.000001)"
         id="path15" /></clipPath><clipPath
       clipPathUnits="userSpaceOnUse"
       id="clipPath17"><path
         d="M 0,24 H 24 V 0 H 0 Z"
         transform="translate(-2.0000001,-22.000001)"
         id="path17-6" /></clipPath><clipPath
       clipPathUnits="userSpaceOnUse"
       id="clipPath19"><path
         d="M 0,24 H 24 V 0 H 0 Z"
         transform="translate(-22,-22.000001)"
         id="path19-0" /></clipPath><clipPath
       clipPathUnits="userSpaceOnUse"
       id="clipPath3-0"><path
         d="M 0,24 H 24 V 0 H 0 Z"
         transform="matrix(1.3333333,0,0,-1.3333333,0,32)"
         id="path3-6" /></clipPath><clipPath
       clipPathUnits="userSpaceOnUse"
       id="clipPath1-3"><path
         d="M 0,24 H 24 V 0 H 0 Z"
         id="path1-2" /></clipPath><clipPath
       clipPathUnits="userSpaceOnUse"
       id="clipPath5-0"><path
         d="M 0,24 H 24 V 0 H 0 Z"
         transform="translate(-18,-22.000201)"
         id="path5-3-6" /></clipPath><clipPath
       clipPathUnits="userSpaceOnUse"
       id="clipPath7-1"><path
         d="M 0,24 H 24 V 0 H 0 Z"
         transform="translate(-20.0002,-20.000001)"
         id="path7-5" /></clipPath><clipPath
       clipPathUnits="userSpaceOnUse"
       id="clipPath9-5"><path
         d="M 0,24 H 24 V 0 H 0 Z"
         transform="translate(-19,-21.000001)"
         id="path9-4" /></clipPath><clipPath
       clipPathUnits="userSpaceOnUse"
       id="clipPath11-7"><path
         d="M 0,24 H 24 V 0 H 0 Z"
         transform="translate(-12.0003,-18)"
         id="path11-6" /></clipPath><clipPath
       clipPathUnits="userSpaceOnUse"
       id="clipPath13-5"><path
         d="M 0,24 H 24 V 0 H 0 Z"
         id="path13-6" /></clipPath><clipPath
       clipPathUnits="userSpaceOnUse"
       id="clipPath15-9"><path
         d="M 0,24 H 24 V 0 H 0 Z"
         transform="translate(-12,-22.000001)"
         id="path15-3" /></clipPath><clipPath
       clipPathUnits="userSpaceOnUse"
       id="clipPath17-7"><path
         d="M 0,24 H 24 V 0 H 0 Z"
         transform="translate(-2.0000001,-22.000001)"
         id="path17-6-4" /></clipPath><clipPath
       clipPathUnits="userSpaceOnUse"
       id="clipPath19-5"><path
         d="M 0,24 H 24 V 0 H 0 Z"
         transform="translate(-22,-22.000001)"
         id="path19-0-2" /></clipPath></defs><g
     inkscape:label="Layer 1"
     inkscape:groupmode="layer"
     id="layer1"><path
       id="path19"
       style="fill:#000000;stroke-width:0.025"
       d="M 13.550781 3.6992188 L 8.5507812 19.699219 L 10.449219 20.300781 L 15.449219 4.3007812 L 13.550781 3.6992188 z M 5.5 7.25 L 5.5 9 L 3.75 9 L 3.75 10.75 L 2 10.75 L 2 13.25 L 3.75 13.25 L 3.75 15 L 5.5 15 L 5.5 16.75 L 7.5 16.75 L 7.5 14.75 L 5.75 14.75 L 5.75 13 L 4 13 L 4 11 L 5.75 11 L 5.75 9.25 L 7.5 9.25 L 7.5 7.25 L 5.5 7.25 z M 16.5 7.25 L 16.5 9.25 L 18.25 9.25 L 18.25 11 L 20 11 L 20 13 L 18.25 13 L 18.25 14.75 L 16.5 14.75 L 16.5 16.75 L 18.5 16.75 L 18.5 15 L 20.25 15 L 20.25 13.25 L 22 13.25 L 22 10.75 L 20.25 10.75 L 20.25 9 L 18.5 9 L 18.5 7.25 L 16.5 7.25 z " /></g></svg>
