<?xml version="1.0" encoding="UTF-8" standalone="no"?>
<!-- Created with Inkscape (http://www.inkscape.org/) -->

<svg
   width="24"
   height="24"
   viewBox="0 0 24 24"
   version="1.1"
   id="svg1"
   inkscape:version="1.4.2 (ebf0e940d0, 2025-05-08)"
   sodipodi:docname="github.svg"
   xml:space="preserve"
   xmlns:inkscape="http://www.inkscape.org/namespaces/inkscape"
   xmlns:sodipodi="http://sodipodi.sourceforge.net/DTD/sodipodi-0.dtd"
   xmlns="http://www.w3.org/2000/svg"
   xmlns:svg="http://www.w3.org/2000/svg"><sodipodi:namedview
     id="namedview1"
     pagecolor="#ffffff"
     bordercolor="#000000"
     borderopacity="0.25"
     inkscape:showpageshadow="2"
     inkscape:pageopacity="0.0"
     inkscape:pagecheckerboard="false"
     inkscape:deskcolor="#d1d1d1"
     inkscape:document-units="px"
     labelstyle="default"
     showgrid="false"
     showguides="true"
     inkscape:zoom="28.76462"
     inkscape:cx="9.5777382"
     inkscape:cy="9.8210927"
     inkscape:window-width="1691"
     inkscape:window-height="990"
     inkscape:window-x="0"
     inkscape:window-y="0"
     inkscape:window-maximized="1"
     inkscape:current-layer="layer1"
     inkscape:lockguides="true"><inkscape:grid
       id="grid1"
       units="px"
       originx="0"
       originy="0"
       spacingx="1"
       spacingy="1"
       empcolor="#0099e5"
       empopacity="0.30196078"
       color="#0099e5"
       opacity="0.14901961"
       empspacing="6"
       enabled="true"
       visible="false"
       dotted="false" /><sodipodi:guide
       position="12,22"
       orientation="0,-1"
       id="guide1"
       inkscape:locked="true" /><sodipodi:guide
       position="12,21"
       orientation="0,-1"
       id="guide2"
       inkscape:locked="true" /><sodipodi:guide
       position="12,20"
       orientation="0,-1"
       id="guide3"
       inkscape:locked="true" /><sodipodi:guide
       position="2,12"
       orientation="1,0"
       id="guide4"
       inkscape:locked="true" /><sodipodi:guide
       position="3,12"
       orientation="1,0"
       id="guide5"
       inkscape:locked="true" /><sodipodi:guide
       position="4,12"
       orientation="1,0"
       id="guide6"
       inkscape:locked="true" /><sodipodi:guide
       position="22,12"
       orientation="1,0"
       id="guide7"
       inkscape:locked="true" /><sodipodi:guide
       position="21,12"
       orientation="1,0"
       id="guide8"
       inkscape:locked="true" /><sodipodi:guide
       position="20,12"
       orientation="1,0"
       id="guide9"
       inkscape:locked="true" /><sodipodi:guide
       position="12,2"
       orientation="0,-1"
       id="guide10"
       inkscape:locked="true" /><sodipodi:guide
       position="12,3"
       orientation="0,-1"
       id="guide11"
       inkscape:locked="true" /><sodipodi:guide
       position="12,4"
       orientation="0,-1"
       id="guide12"
       inkscape:locked="true" /><sodipodi:guide
       position="12,12"
       orientation="0.70710678,-0.70710678"
       id="guide13"
       inkscape:locked="true" /><sodipodi:guide
       position="12,12"
       orientation="-0.70710678,-0.70710678"
       id="guide14"
       inkscape:locked="true" /><sodipodi:guide
       position="8,12"
       orientation="1,0"
       id="guide15"
       inkscape:locked="true" /><sodipodi:guide
       position="12,16"
       orientation="0,-1"
       id="guide16"
       inkscape:locked="true" /><sodipodi:guide
       position="16,12"
       orientation="1,0"
       id="guide17"
       inkscape:locked="true" /><sodipodi:guide
       position="12,8"
       orientation="0,-1"
       id="guide18"
       inkscape:locked="true" /><sodipodi:guide
       position="12,12"
       orientation="1,0"
       id="guide19"
       inkscape:locked="true" /><sodipodi:guide
       position="12,12"
       orientation="0,-1"
       id="guide20"
       inkscape:locked="true" /></sodipodi:namedview><defs
     id="defs1" /><g
     inkscape:label="Layer 1"
     inkscape:groupmode="layer"
     id="layer1"><path
       d="m 10.611337,15.744146 c -2.3203287,-0.281258 -3.9550961,-1.95118 -3.9550961,-4.113293 0,-0.878895 0.3164143,-1.8281205 0.8437592,-2.4609306 C 7.271492,8.5898448 7.3066471,7.3593795 7.5703103,6.8496122 8.2734307,6.7617244 9.2226552,7.130853 9.7851552,7.6406203 10.45312,7.4296897 11.156241,7.3242244 12.017578,7.3242244 c 0.861336,0 1.564457,0.1054653 2.197267,0.2988184 0.544922,-0.4921898 1.511724,-0.8613184 2.214845,-0.7734306 0.246086,0.4746122 0.281241,1.7050775 0.05273,2.3027326 0.5625,0.6679657 0.861319,1.5644572 0.861319,2.4785082 0,2.162113 -1.634749,3.79688 -3.990233,4.095717 0.597655,0.386705 1.001957,1.230464 1.001957,2.197266 v 1.828121 c 0,0.527344 0.439457,0.826163 0.966802,0.615232 C 18.503914,19.154302 21,15.972656 21,12.035156 21,7.0605428 16.957035,3 11.982422,3 7.0078103,2.9999999 3.0000001,7.0605428 3,12.035156 c 0,3.902344 2.4785083,7.136723 5.8183532,8.349612 0.4746122,0.175774 0.9316469,-0.140622 0.9316469,-0.615233 v -1.406259 c -0.2460857,0.105484 -0.5625,0.175794 -0.8437592,0.175794 -1.1601552,0 -1.845698,-0.63281 -2.3378878,-1.810561 -0.193353,-0.474595 -0.4042836,-0.755853 -0.8085856,-0.808586 -0.2109307,-0.01758 -0.2812592,-0.105465 -0.2812592,-0.210931 0,-0.210949 0.3515694,-0.369147 0.7031387,-0.369147 0.5097674,0 0.9492062,0.316415 1.4062409,0.966802 0.3515694,0.509768 0.7206979,0.738276 1.1601551,0.738276 0.4394571,0 0.7206979,-0.158198 1.125,-0.5625 0.298837,-0.298837 0.527345,-0.5625 0.738294,-0.738277 z"
       fill="#000000"
       id="path1"
       style="stroke-width:0.183673" /></g></svg>
