<?xml version="1.0" encoding="UTF-8" standalone="no"?>
<!-- Created with Inkscape (http://www.inkscape.org/) -->

<svg
   width="24"
   height="24"
   viewBox="0 0 24 24"
   version="1.1"
   id="svg1"
   inkscape:version="1.4.2 (ebf0e940d0, 2025-05-08)"
   sodipodi:docname="linkedin.svg"
   xml:space="preserve"
   xmlns:inkscape="http://www.inkscape.org/namespaces/inkscape"
   xmlns:sodipodi="http://sodipodi.sourceforge.net/DTD/sodipodi-0.dtd"
   xmlns="http://www.w3.org/2000/svg"
   xmlns:svg="http://www.w3.org/2000/svg"><sodipodi:namedview
     id="namedview1"
     pagecolor="#ffffff"
     bordercolor="#000000"
     borderopacity="0.25"
     inkscape:showpageshadow="2"
     inkscape:pageopacity="0.0"
     inkscape:pagecheckerboard="false"
     inkscape:deskcolor="#d1d1d1"
     inkscape:document-units="px"
     labelstyle="default"
     showgrid="false"
     showguides="true"
     inkscape:zoom="16"
     inkscape:cx="15.5"
     inkscape:cy="7.90625"
     inkscape:window-width="1691"
     inkscape:window-height="990"
     inkscape:window-x="0"
     inkscape:window-y="0"
     inkscape:window-maximized="1"
     inkscape:current-layer="layer1"
     inkscape:lockguides="true"><inkscape:grid
       id="grid1"
       units="px"
       originx="0"
       originy="0"
       spacingx="1"
       spacingy="1"
       empcolor="#0099e5"
       empopacity="0.30196078"
       color="#0099e5"
       opacity="0.14901961"
       empspacing="6"
       enabled="true"
       visible="false"
       dotted="false" /><sodipodi:guide
       position="12,22"
       orientation="0,-1"
       id="guide1"
       inkscape:locked="true" /><sodipodi:guide
       position="12,21"
       orientation="0,-1"
       id="guide2"
       inkscape:locked="true" /><sodipodi:guide
       position="12,20"
       orientation="0,-1"
       id="guide3"
       inkscape:locked="true" /><sodipodi:guide
       position="2,12"
       orientation="1,0"
       id="guide4"
       inkscape:locked="true" /><sodipodi:guide
       position="3,12"
       orientation="1,0"
       id="guide5"
       inkscape:locked="true" /><sodipodi:guide
       position="4,12"
       orientation="1,0"
       id="guide6"
       inkscape:locked="true" /><sodipodi:guide
       position="22,12"
       orientation="1,0"
       id="guide7"
       inkscape:locked="true" /><sodipodi:guide
       position="21,12"
       orientation="1,0"
       id="guide8"
       inkscape:locked="true" /><sodipodi:guide
       position="20,12"
       orientation="1,0"
       id="guide9"
       inkscape:locked="true" /><sodipodi:guide
       position="12,2"
       orientation="0,-1"
       id="guide10"
       inkscape:locked="true" /><sodipodi:guide
       position="12,3"
       orientation="0,-1"
       id="guide11"
       inkscape:locked="true" /><sodipodi:guide
       position="12,4"
       orientation="0,-1"
       id="guide12"
       inkscape:locked="true" /><sodipodi:guide
       position="12,12"
       orientation="0.70710678,-0.70710678"
       id="guide13"
       inkscape:locked="true" /><sodipodi:guide
       position="12,12"
       orientation="-0.70710678,-0.70710678"
       id="guide14"
       inkscape:locked="true" /><sodipodi:guide
       position="8,12"
       orientation="1,0"
       id="guide15"
       inkscape:locked="true" /><sodipodi:guide
       position="12,16"
       orientation="0,-1"
       id="guide16"
       inkscape:locked="true" /><sodipodi:guide
       position="16,12"
       orientation="1,0"
       id="guide17"
       inkscape:locked="true" /><sodipodi:guide
       position="12,8"
       orientation="0,-1"
       id="guide18"
       inkscape:locked="true" /><sodipodi:guide
       position="12,12"
       orientation="1,0"
       id="guide19"
       inkscape:locked="true" /><sodipodi:guide
       position="12,12"
       orientation="0,-1"
       id="guide20"
       inkscape:locked="true" /></sodipodi:namedview><defs
     id="defs1" /><g
     inkscape:label="Layer 1"
     inkscape:groupmode="layer"
     id="layer1"><path
       id="rect11"
       style="fill:#000000;stroke-width:2;stroke-linejoin:round;paint-order:fill markers stroke"
       d="M 4 3 C 3.446 3 3 3.446 3 4 L 3 20 C 3 20.554 3.446 21 4 21 L 20 21 C 20.554 21 21 20.554 21 20 L 21 4 C 21 3.446 20.554 3 20 3 L 4 3 z M 7.1464844 6.0214844 C 8.0707173 6.0214844 8.638686 6.6282292 8.65625 7.4257812 C 8.65625 8.2057767 8.0690566 8.8300781 7.1269531 8.8300781 L 7.109375 8.8300781 C 6.2027483 8.8300781 5.6171875 8.2057767 5.6171875 7.4257812 C 5.6171875 6.6282293 6.2223483 6.0214844 7.1464844 6.0214844 z M 15.109375 9.75 C 16.886816 9.75 18.220703 10.911642 18.220703 13.408203 L 18.220703 18.068359 L 15.519531 18.068359 L 15.519531 13.71875 C 15.519531 12.626085 15.127969 11.880859 14.150391 11.880859 C 13.404069 11.880859 12.95897 12.38378 12.763672 12.869141 C 12.692342 13.042793 12.675781 13.286374 12.675781 13.529297 L 12.675781 18.068359 L 9.9746094 18.068359 C 9.9746094 18.068359 10.010062 10.70213 9.9746094 9.9394531 L 12.675781 9.9394531 L 12.675781 11.089844 C 13.034811 10.536003 13.676269 9.75 15.109375 9.75 z M 12.675781 11.089844 C 12.669687 11.099245 12.662183 11.109879 12.65625 11.119141 L 12.675781 11.119141 L 12.675781 11.089844 z M 5.7773438 9.9394531 L 8.4785156 9.9394531 L 8.4785156 18.068359 L 5.7773438 18.068359 L 5.7773438 9.9394531 z " /></g></svg>
