<?xml version="1.0" encoding="UTF-8" standalone="no"?>
<!-- Created with Inkscape (http://www.inkscape.org/) -->

<svg
   width="24"
   height="24"
   viewBox="0 0 24 24"
   version="1.1"
   id="svg1"
   inkscape:version="1.4.2 (ebf0e940d0, 2025-05-08)"
   sodipodi:docname="mastodon.svg"
   xml:space="preserve"
   xmlns:inkscape="http://www.inkscape.org/namespaces/inkscape"
   xmlns:sodipodi="http://sodipodi.sourceforge.net/DTD/sodipodi-0.dtd"
   xmlns="http://www.w3.org/2000/svg"
   xmlns:svg="http://www.w3.org/2000/svg"><sodipodi:namedview
     id="namedview1"
     pagecolor="#ffffff"
     bordercolor="#000000"
     borderopacity="0.25"
     inkscape:showpageshadow="2"
     inkscape:pageopacity="0.0"
     inkscape:pagecheckerboard="false"
     inkscape:deskcolor="#d1d1d1"
     inkscape:document-units="px"
     labelstyle="default"
     showgrid="true"
     showguides="true"
     inkscape:zoom="10.623532"
     inkscape:cx="-1.2236985"
     inkscape:cy="12.942964"
     inkscape:window-width="1691"
     inkscape:window-height="990"
     inkscape:window-x="0"
     inkscape:window-y="0"
     inkscape:window-maximized="1"
     inkscape:current-layer="layer1"
     inkscape:lockguides="true"><inkscape:grid
       id="grid1"
       units="px"
       originx="0"
       originy="0"
       spacingx="1"
       spacingy="1"
       empcolor="#0099e5"
       empopacity="0.30196078"
       color="#0099e5"
       opacity="0.14901961"
       empspacing="6"
       enabled="true"
       visible="true"
       dotted="false" /><sodipodi:guide
       position="12,22"
       orientation="0,-1"
       id="guide1"
       inkscape:locked="true" /><sodipodi:guide
       position="12,21"
       orientation="0,-1"
       id="guide2"
       inkscape:locked="true" /><sodipodi:guide
       position="12,20"
       orientation="0,-1"
       id="guide3"
       inkscape:locked="true" /><sodipodi:guide
       position="2,12"
       orientation="1,0"
       id="guide4"
       inkscape:locked="true" /><sodipodi:guide
       position="3,12"
       orientation="1,0"
       id="guide5"
       inkscape:locked="true" /><sodipodi:guide
       position="4,12"
       orientation="1,0"
       id="guide6"
       inkscape:locked="true" /><sodipodi:guide
       position="22,12"
       orientation="1,0"
       id="guide7"
       inkscape:locked="true" /><sodipodi:guide
       position="21,12"
       orientation="1,0"
       id="guide8"
       inkscape:locked="true" /><sodipodi:guide
       position="20,12"
       orientation="1,0"
       id="guide9"
       inkscape:locked="true" /><sodipodi:guide
       position="12,2"
       orientation="0,-1"
       id="guide10"
       inkscape:locked="true" /><sodipodi:guide
       position="12,3"
       orientation="0,-1"
       id="guide11"
       inkscape:locked="true" /><sodipodi:guide
       position="12,4"
       orientation="0,-1"
       id="guide12"
       inkscape:locked="true" /><sodipodi:guide
       position="12,12"
       orientation="0.70710678,-0.70710678"
       id="guide13"
       inkscape:locked="true" /><sodipodi:guide
       position="12,12"
       orientation="-0.70710678,-0.70710678"
       id="guide14"
       inkscape:locked="true" /><sodipodi:guide
       position="8,12"
       orientation="1,0"
       id="guide15"
       inkscape:locked="true" /><sodipodi:guide
       position="12,16"
       orientation="0,-1"
       id="guide16"
       inkscape:locked="true" /><sodipodi:guide
       position="16,12"
       orientation="1,0"
       id="guide17"
       inkscape:locked="true" /><sodipodi:guide
       position="12,8"
       orientation="0,-1"
       id="guide18"
       inkscape:locked="true" /><sodipodi:guide
       position="12,12"
       orientation="1,0"
       id="guide19"
       inkscape:locked="true" /><sodipodi:guide
       position="12,12"
       orientation="0,-1"
       id="guide20"
       inkscape:locked="true" /></sodipodi:namedview><defs
     id="defs1" /><g
     inkscape:label="Layer 1"
     inkscape:groupmode="layer"
     id="layer1"><path
       d="M 20.469578,6.985034 C 20.206547,5.051008 18.502501,3.526865 16.482486,3.231527 16.141686,3.181621 14.85044,3 11.859278,3 h -0.02234 C 8.8449689,3 8.2030609,3.181621 7.8622609,3.231527 c -1.963777,0.287157 -3.757138,1.656678 -4.192245,3.613592 -0.209281,0.963738 -0.231615,2.0322 -0.192737,3.0123 0.05542,1.405523 0.06618,2.808577 0.195219,4.208377 0.08921,0.929815 0.244837,1.852223 0.465713,2.7603 0.413598,1.677138 2.08785,3.072831 3.728181,3.642254 1.756223,0.593815 3.6448841,0.692377 5.4545531,0.2847 0.199062,-0.04581 0.395954,-0.099 0.590608,-0.159531 0.439246,-0.138254 0.9546,-0.292892 1.333454,-0.564508 0.0052,-0.0038 0.0095,-0.0087 0.01246,-0.0144 0.003,-0.0057 0.0047,-0.01193 0.0049,-0.01832 v -1.356415 c -9.2e-5,-0.006 -0.0015,-0.01186 -0.0042,-0.01722 -0.0027,-0.0054 -0.0066,-0.01006 -0.01133,-0.01373 -0.0048,-0.0037 -0.01029,-0.0063 -0.01618,-0.0076 -0.0059,-0.0013 -0.01202,-0.0013 -0.01791,6.9e-5 -1.15943,0.273924 -2.347546,0.411231 -3.539584,0.409062 -2.0514461,0 -2.6031921,-0.962908 -2.7612001,-1.3638 -0.126992,-0.346454 -0.207646,-0.707838 -0.239885,-1.074992 -3.23e-4,-0.0062 8.31e-4,-0.01232 0.0033,-0.01798 0.0025,-0.0056 0.0064,-0.01062 0.01119,-0.01452 0.0048,-0.0039 0.01055,-0.0066 0.01664,-0.0079 0.0061,-0.0013 0.01242,-0.0012 0.01846,3.46e-4 1.140115,0.272054 2.3088461,0.409362 3.4816841,0.409062 0.28207,0 0.563308,0 0.8454,-0.0074 1.179577,-0.03272 2.422846,-0.09245 3.583408,-0.316615 0.02896,-0.0057 0.0579,-0.01064 0.08273,-0.018 1.830577,-0.3477 3.572654,-1.439054 3.749677,-4.202654 0.0066,-0.108808 0.02317,-1.139631 0.02317,-1.252523 8.31e-4,-0.3837 0.124915,-2.721854 -0.01821,-4.158462 z M 17.65214,13.880903 H 15.727271 V 9.217657 c 0,-0.981738 -0.413608,-1.482415 -1.254877,-1.482415 -0.924808,0 -1.388031,0.592315 -1.388031,1.7622 v 2.552515 H 11.171055 V 9.497442 c 0,-1.169885 -0.464054,-1.7622 -1.3888611,-1.7622 -0.836308,0 -1.254047,0.500677 -1.254877,1.482415 v 4.663246 H 6.6040859 V 9.076127 c 0,-0.981739 0.253408,-1.76167 0.7602,-2.339816 0.522785,-0.576761 1.208538,-0.872907 2.059731,-0.872907 0.9851771,0 1.7296611,0.374676 2.2259771,1.123269 l 0.478961,0.795207 0.479769,-0.795207 c 0.496316,-0.748593 1.2408,-1.123269 2.224339,-1.123269 0.850361,0 1.536092,0.296146 2.060538,0.872907 0.506816,0.577593 0.7602,1.357523 0.7602,2.339816 z"
       fill="inherit"
       id="path1"
       style="stroke-width:0.230769" /></g></svg>
